<?xml version="1.0" encoding="utf-8"?>
<!-- Generator: Adobe Illustrator 16.0.0, SVG Export Plug-In . SVG Version: 6.00 Build 0)  -->
<!DOCTYPE svg PUBLIC "-//W3C//DTD SVG 1.1//EN" "http://www.w3.org/Graphics/SVG/1.1/DTD/svg11.dtd">
<svg version="1.1" xmlns="http://www.w3.org/2000/svg" xmlns:xlink="http://www.w3.org/1999/xlink" x="0px" y="0px"
     width="200px"
     height="200px" viewBox="0 0 200 200" enable-background="new 0 0 200 200" xml:space="preserve">
<g id="图层_1">
	<path fill="#FFE9B4" d="M179.428,172.461H20.376c-4.248,0-7.681-3.053-7.681-6.83V54.096c0-3.777,3.433-6.831,7.681-6.831h159.051
		c4.248,0,7.682,3.053,7.682,6.831v111.535C187.109,169.391,183.656,172.461,179.428,172.461z"/>
    <path fill="#FFB02C" d="M100,80.273H12.695V41.088c0-4.252,3.437-7.689,7.689-7.689h59.75c3.398,0,6.389,2.214,7.36,5.476
		L100,80.273z"/>
    <path fill="#FFCA28" d="M179.428,172.461H20.376c-4.248,0-7.681-3.434-7.681-7.682V65.495c0-4.249,3.433-7.682,7.681-7.682h159.051
		c4.248,0,7.682,3.434,7.682,7.682v99.285C187.109,169.008,183.656,172.461,179.428,172.461z"/>
</g>
    <g id="图层_2">
</g>
</svg>
