<?xml version="1.0" standalone="no"?>
<!DOCTYPE svg PUBLIC "-//W3C//DTD SVG 1.1//EN" "http://www.w3.org/Graphics/SVG/1.1/DTD/svg11.dtd">
<svg t="1605919566597"
     class="icon" viewBox="0 0 1024 1024" version="1.1" xmlns="http://www.w3.org/2000/svg" p-id="1117"
     xmlns:xlink="http://www.w3.org/1999/xlink" width="200" height="200">
    <defs>
        <style type="text/css"></style>
    </defs>
    <path
            d="M851 234.9s-36.6 247.5-168.9 400.3c-43.7 50.4-109.3 78.4-177.5 78.4-2.6 0-5.3 0-7.9-0.1-93.5-3-226-15.5-235.6-62.2-4.8-23.4-77.4-296.4 126-385.4 30.6-13.4 64.4-18.8 98.1-18.8h11c89.1 0 277.2-1.4 354.8-12.2m0-43.1h-1.2c-2 0.1-4.1 0.2-6 0.5C767.4 202.8 575.3 204 496 204h-10.9c-43.1 0-82.4 7.7-117 22.8-144.5 63.2-200 219.6-152.3 429.1 0.4 1.7 0.7 2.9 0.8 3.8 12.7 61.4 98.5 91.3 278.5 97 3.1 0.1 6.3 0.1 9.4 0.1 83.1 0 160.5-34.3 212.3-94.1 134.7-155.5 174.9-396.1 178.6-420.2 0.5-2.5 0.7-5 0.7-7.6 0-23.7-20-42.9-44.7-43.1h-0.4z"
            fill="#323333" p-id="1118"></path>
    <path
            d="M150 831.7c-3.8 0-7.6-0.9-11.2-2.8-10.8-5.9-14.6-19.1-8.4-29.4 195.2-326.7 689.3-573.4 710.2-583.7 11.1-5.5 24.7-1.3 30.4 9.2 5.7 10.6 1.4 23.6-9.7 29.1-5 2.5-503.2 251.2-691.7 566.8-4.1 6.9-11.8 10.8-19.6 10.8z"
            fill="#323333" p-id="1119"></path>
</svg>